<?xml version="1.0" standalone="no"?><!DOCTYPE svg PUBLIC "-//W3C//DTD SVG 1.1//EN" "http://www.w3.org/Graphics/SVG/1.1/DTD/svg11.dtd"><svg t="1696061790818" class="icon" viewBox="0 0 1024 1024" version="1.1" xmlns="http://www.w3.org/2000/svg" p-id="11501" xmlns:xlink="http://www.w3.org/1999/xlink" width="200" height="200"><path d="M570.773333 89.344C778.602667 117.994667 938.666667 296.32 938.666667 512c0 48.512-190.122667 511.296-190.122667 511.296H276.010667S85.333333 528.277333 85.333333 512C85.333333 296.32 245.397333 117.973333 453.226667 89.344a64 64 0 1 1 117.546666 0zM512 981.333333H298.666667L143.445333 553.834667h743.552L725.333333 981.333333h-213.312c11.776 0 21.312-9.728 21.312-21.162666V575.829333A21.184 21.184 0 0 0 512 554.666667c-11.776 0-21.333333 9.706667-21.333333 21.162666v384.341334c0 11.690667 9.450667 21.141333 21.312 21.162666zM896 512c0-68.8-18.090667-133.376-49.770667-189.226667-2.922667-5.12-20.928 2.986667-41.514666-15.253333-33.493333-29.653333-73.386667-85.12-113.92-72.192-43.306667 13.802667 6.613333 163.797333-30.08 165.824-30.72 1.685333-77.738667-129.749333-130.346667-133.738667-52.629333-3.968-69.354667 163.157333-108.885333 148.992-39.552-14.144 9.898667-167.253333-25.344-181.077333-35.242667-13.824-111.210667 113.216-147.733334 113.216-36.544 0 11.093333-68.416 14.016-99.413333 1.472-15.658667-6.826667-25.045333-30.357333 0A382.656 382.656 0 0 0 128 512h768z m-251.328 44.266667a21.397333 21.397333 0 0 0-23.765333 18.389333L574.08 956.16a21.184 21.184 0 0 0 18.581333 23.594667 21.397333 21.397333 0 0 0 23.765334-18.389334L663.253333 579.84a21.184 21.184 0 0 0-18.581333-23.594667z m132.266667 4.736c-11.434667-2.858667-23.04 4.266667-25.813334 15.36L658.133333 949.333333a21.184 21.184 0 0 0 15.573334 25.685334c11.456 2.858667 23.061333-4.266667 25.834666-15.36L792.533333 586.666667a21.184 21.184 0 0 0-15.573333-25.685334z m-521.749334-0.853334a21.397333 21.397333 0 0 0-16.042666 25.386667l86.464 374.506667a21.184 21.184 0 0 0 25.557333 15.829333c11.477333-2.666667 18.602667-14.272 16.021333-25.429333L280.725333 575.957333a21.184 21.184 0 0 0-25.536-15.829333z m132.352-4.309333c-11.733333 1.237333-20.202667 11.882667-18.986666 23.253333l40.149333 382.250667a21.184 21.184 0 0 0 23.445333 18.816c11.712-1.237333 20.181333-11.882667 18.986667-23.253333l-40.170667-382.250667a21.184 21.184 0 0 0-23.424-18.816zM512 85.333333a21.333333 21.333333 0 1 0 0-42.666666 21.333333 21.333333 0 0 0 0 42.666666z" fill="#FF4D74" p-id="11502"></path></svg>